<svg width="32" height="32" viewBox="0 0 32 32" fill="none" xmlns="http://www.w3.org/2000/svg">
<path d="M14.8967 4.93713C15.1293 4.57463 15.0316 4.08452 14.6795 3.84785L13.1086 2.79202C12.7633 2.55988 12.3025 2.65905 12.0743 3.01457L10.1292 6.04531L13.1714 7.62537L14.8967 4.93713Z" fill="white"/>
<path d="M17.5695 9.90971L18.9935 7.69079C19.2261 7.32829 19.1284 6.83818 18.7763 6.60152L17.2055 5.54568C16.8601 5.31354 16.3993 5.41271 16.1711 5.76823L14.5273 8.3296L17.5695 9.90971Z" fill="white"/>
<path d="M19.2881 14.4769L17.9107 13.8411C17.4848 13.6444 17.3318 13.0967 17.5904 12.6937L20.2677 8.52181C20.4959 8.16629 20.9567 8.06712 21.3021 8.29926L22.5495 9.13775C22.9016 9.37442 22.9993 9.86453 22.7667 10.227L20.2193 14.1964C20.0161 14.513 19.6229 14.6315 19.2881 14.4769Z" fill="white"/>
<path d="M26.3233 11.6741L25.0759 10.8356C24.7305 10.6035 24.2697 10.7027 24.0415 11.0582L21.7574 14.6174C21.4988 15.0203 21.6517 15.568 22.0777 15.7647L23.4551 16.4006C23.7898 16.5551 24.1831 16.4366 24.3863 16.12L26.5405 12.7633C26.7731 12.4009 26.6754 11.9108 26.3233 11.6741Z" fill="white"/>
<path d="M22.8437 17.8285C23.1341 17.9626 23.4424 18.0306 23.7598 18.0306C24.3917 18.0306 24.9849 17.7575 25.4078 17.2866V19.5732C25.4078 21.118 24.6691 22.5517 23.4318 23.4086C23.1527 23.6019 22.964 23.733 22.964 23.733C22.7554 23.878 22.6301 24.1215 22.6301 24.3823V28.5522C22.6301 28.9837 22.2934 29.3334 21.8781 29.3334H10.5038C10.0146 29.3334 9.65551 28.8558 9.77419 28.3627L11.1495 22.6482C11.204 22.4215 11.1581 22.1814 11.0242 21.9937L5.48107 14.2202C5.29225 13.9554 5.28367 13.596 5.45966 13.3218L8.92024 7.92945C9.13062 7.60164 9.5431 7.48783 9.88234 7.66403L15.9666 10.8242C16.3712 11.0344 16.507 11.5653 16.256 11.9563L15.7959 12.6733C15.6564 12.8907 15.4216 13.0212 15.1702 13.0212H10.4199C9.99244 13.0212 9.64829 13.3916 9.66865 13.8403C9.6877 14.2605 10.0362 14.5837 10.4411 14.5837H13.6586L17.1448 21.8266C17.3259 22.2029 17.7601 22.3821 18.1304 22.2118C18.5257 22.03 18.6908 21.5447 18.4996 21.1476L15.3403 14.5837H15.8155L22.8437 17.8285Z" fill="white"/>
</svg>
